<svg width="236" height="35" viewBox="0 0 236 35" fill="none" xmlns="http://www.w3.org/2000/svg">
<path d="M12.005 34.36C9.815 34.36 7.865 33.985 6.155 33.235C4.445 32.485 3.095 31.465 2.105 30.175C1.115 28.855 0.56 27.385 0.44 25.765H8.045C8.135 26.635 8.54 27.34 9.26 27.88C9.98 28.42 10.865 28.69 11.915 28.69C12.875 28.69 13.61 28.51 14.12 28.15C14.66 27.76 14.93 27.265 14.93 26.665C14.93 25.945 14.555 25.42 13.805 25.09C13.055 24.73 11.84 24.34 10.16 23.92C8.36 23.5 6.86 23.065 5.66 22.615C4.46 22.135 3.425 21.4 2.555 20.41C1.685 19.39 1.25 18.025 1.25 16.315C1.25 14.875 1.64 13.57 2.42 12.4C3.23 11.2 4.4 10.255 5.93 9.565C7.49 8.875 9.335 8.53 11.465 8.53C14.615 8.53 17.09 9.31 18.89 10.87C20.72 12.43 21.77 14.5 22.04 17.08H14.93C14.81 16.21 14.42 15.52 13.76 15.01C13.13 14.5 12.29 14.245 11.24 14.245C10.34 14.245 9.65 14.425 9.17 14.785C8.69 15.115 8.45 15.58 8.45 16.18C8.45 16.9 8.825 17.44 9.575 17.8C10.355 18.16 11.555 18.52 13.175 18.88C15.035 19.36 16.55 19.84 17.72 20.32C18.89 20.77 19.91 21.52 20.78 22.57C21.68 23.59 22.145 24.97 22.175 26.71C22.175 28.18 21.755 29.5 20.915 30.67C20.105 31.81 18.92 32.71 17.36 33.37C15.83 34.03 14.045 34.36 12.005 34.36ZM58.9228 8.62C62.0428 8.62 64.5178 9.565 66.3478 11.455C68.2078 13.345 69.1378 15.97 69.1378 19.33V34H61.4878V20.365C61.4878 18.745 61.0528 17.5 60.1828 16.63C59.3428 15.73 58.1728 15.28 56.6728 15.28C55.1728 15.28 53.9878 15.73 53.1178 16.63C52.2778 17.5 51.8578 18.745 51.8578 20.365V34H44.2078V20.365C44.2078 18.745 43.7728 17.5 42.9028 16.63C42.0628 15.73 40.8928 15.28 39.3928 15.28C37.8928 15.28 36.7078 15.73 35.8378 16.63C34.9978 17.5 34.5778 18.745 34.5778 20.365V34H26.8828V8.89H34.5778V12.04C35.3578 10.99 36.3778 10.165 37.6378 9.565C38.8978 8.935 40.3228 8.62 41.9128 8.62C43.8028 8.62 45.4828 9.025 46.9528 9.835C48.4528 10.645 49.6228 11.8 50.4628 13.3C51.3328 11.92 52.5178 10.795 54.0178 9.925C55.5178 9.055 57.1528 8.62 58.9228 8.62ZM72.9895 21.4C72.9895 18.82 73.4695 16.555 74.4295 14.605C75.4195 12.655 76.7545 11.155 78.4345 10.105C80.1145 9.055 81.9895 8.53 84.0595 8.53C85.8295 8.53 87.3745 8.89 88.6945 9.61C90.0445 10.33 91.0795 11.275 91.7995 12.445V8.89H99.4945V34H91.7995V30.445C91.0495 31.615 89.9995 32.56 88.6495 33.28C87.3295 34 85.7845 34.36 84.0145 34.36C81.9745 34.36 80.1145 33.835 78.4345 32.785C76.7545 31.705 75.4195 30.19 74.4295 28.24C73.4695 26.26 72.9895 23.98 72.9895 21.4ZM91.7995 21.445C91.7995 19.525 91.2595 18.01 90.1795 16.9C89.1295 15.79 87.8395 15.235 86.3095 15.235C84.7795 15.235 83.4745 15.79 82.3945 16.9C81.3445 17.98 80.8195 19.48 80.8195 21.4C80.8195 23.32 81.3445 24.85 82.3945 25.99C83.4745 27.1 84.7795 27.655 86.3095 27.655C87.8395 27.655 89.1295 27.1 90.1795 25.99C91.2595 24.88 91.7995 23.365 91.7995 21.445ZM112.756 13.075C113.656 11.695 114.781 10.615 116.131 9.835C117.481 9.025 118.981 8.62 120.631 8.62V16.765H118.516C116.596 16.765 115.156 17.185 114.196 18.025C113.236 18.835 112.756 20.275 112.756 22.345V34H105.061V8.89H112.756V13.075ZM138.305 27.475V34H134.39C131.6 34 129.425 33.325 127.865 31.975C126.305 30.595 125.525 28.36 125.525 25.27V15.28H122.465V8.89H125.525V2.77H133.22V8.89H138.26V15.28H133.22V25.36C133.22 26.11 133.4 26.65 133.76 26.98C134.12 27.31 134.72 27.475 135.56 27.475H138.305Z" fill="#1E1E1E"/>
<path d="M164.236 11.815C164.236 14.425 163.336 16.6 161.536 18.34C159.766 20.05 157.051 20.905 153.391 20.905H147.361V34H143.266V2.635H153.391C156.931 2.635 159.616 3.49 161.446 5.2C163.306 6.91 164.236 9.115 164.236 11.815ZM153.391 17.53C155.671 17.53 157.351 17.035 158.431 16.045C159.511 15.055 160.051 13.645 160.051 11.815C160.051 7.945 157.831 6.01 153.391 6.01H147.361V17.53H153.391ZM167.795 21.58C167.795 19.06 168.305 16.855 169.325 14.965C170.345 13.045 171.74 11.56 173.51 10.51C175.31 9.46 177.305 8.935 179.495 8.935C181.655 8.935 183.53 9.4 185.12 10.33C186.71 11.26 187.895 12.43 188.675 13.84V9.34H192.815V34H188.675V29.41C187.865 30.85 186.65 32.05 185.03 33.01C183.44 33.94 181.58 34.405 179.45 34.405C177.26 34.405 175.28 33.865 173.51 32.785C171.74 31.705 170.345 30.19 169.325 28.24C168.305 26.29 167.795 24.07 167.795 21.58ZM188.675 21.625C188.675 19.765 188.3 18.145 187.55 16.765C186.8 15.385 185.78 14.335 184.49 13.615C183.23 12.865 181.835 12.49 180.305 12.49C178.775 12.49 177.38 12.85 176.12 13.57C174.86 14.29 173.855 15.34 173.105 16.72C172.355 18.1 171.98 19.72 171.98 21.58C171.98 23.47 172.355 25.12 173.105 26.53C173.855 27.91 174.86 28.975 176.12 29.725C177.38 30.445 178.775 30.805 180.305 30.805C181.835 30.805 183.23 30.445 184.49 29.725C185.78 28.975 186.8 27.91 187.55 26.53C188.3 25.12 188.675 23.485 188.675 21.625ZM203.831 13.345C204.551 11.935 205.571 10.84 206.891 10.06C208.241 9.28 209.876 8.89 211.796 8.89V13.12H210.716C206.126 13.12 203.831 15.61 203.831 20.59V34H199.736V9.34H203.831V13.345ZM230.293 34L220.618 23.11V34H216.523V0.7H220.618V20.275L230.113 9.34H235.828L224.218 21.625L235.873 34H230.293Z" fill="#2EBD59"/>
</svg>
